<?xml version="1.0" encoding="utf-8"?>
<!-- Generator: Adobe Illustrator 18.1.1, SVG Export Plug-In . SVG Version: 6.00 Build 0)  -->
<svg version="1.1" id="Layer_1" xmlns="http://www.w3.org/2000/svg" xmlns:xlink="http://www.w3.org/1999/xlink" x="0px" y="0px"
	 viewBox="-455 257 48 48" enable-background="new -455 257 48 48" xml:space="preserve">
<g>
	<path fill="#404040" d="M-407.3,279.8l-10.9-17.5c-0.4-0.6-1.1-1.2-1.9-1.2H-431h-10.9c-0.8,0-1.5,0.6-1.9,1.2l-10.9,17.5
		c-0.4,0.7-0.4,1.6,0,2.4l10.9,17.7c0.4,0.6,1.1,1.2,1.9,1.2h10.9h10.9c0.8,0,1.5-0.6,1.9-1.2l10.9-17.7
		C-406.9,281.4-406.9,280.5-407.3,279.8z M-431,293c-10,0-16-10-16-12s6-12,16-12s16,10,16,12S-421,293-431,293z"/>
	<path fill="#404040" d="M-431,273c-1.7,0-3.3,0.5-4.6,1.4c-2.1,1.4-3.4,3.8-3.4,6.6c0,4.4,3.6,8,8,8c2.7,0,5.1-1.4,6.6-3.4
		c0.9-1.3,1.4-2.9,1.4-4.6C-423,276.6-426.6,273-431,273z"/>
</g>
</svg>
